<svg height="140" viewBox="0 0 740 1009" fill="none" xmlns="http://www.w3.org/2000/svg">
<path d="M275.138 910.117C270.038 907.771 264.479 906.598 258.461 906.598C252.953 906.598 248.822 907.771 246.068 910.117C243.314 912.361 241.937 915.268 241.937 918.838C241.937 922.408 243.11 925.162 245.456 927.1C247.802 928.936 251.933 930.721 257.849 932.455L262.439 933.832C268.253 935.566 272.69 938.116 275.75 941.482C278.81 944.848 280.34 948.979 280.34 953.875C280.34 956.731 279.779 959.434 278.657 961.984C277.535 964.432 275.903 966.574 273.761 968.41C271.619 970.246 268.916 971.674 265.652 972.694C262.49 973.714 258.818 974.224 254.636 974.224C250.046 974.224 246.017 973.816 242.549 973C239.081 972.286 236.021 971.317 233.369 970.093L235.511 963.82C238.163 965.146 240.917 966.166 243.773 966.88C246.629 967.492 249.995 967.798 253.871 967.798C259.685 967.798 264.173 966.676 267.335 964.432C270.497 962.188 272.078 958.975 272.078 954.793C272.078 951.529 270.905 948.724 268.559 946.378C266.315 943.93 262.286 941.788 256.472 939.952L251.576 938.422C239.642 934.648 233.675 928.375 233.675 919.603C233.675 916.747 234.236 914.146 235.358 911.8C236.582 909.352 238.214 907.312 240.254 905.68C242.396 903.946 244.895 902.62 247.751 901.702C250.709 900.682 253.973 900.172 257.543 900.172C260.807 900.172 264.173 900.427 267.641 900.937C271.109 901.447 274.271 902.416 277.127 903.844L275.138 910.117ZM335.195 907.21H311.021V954.334C311.021 959.128 312.092 962.392 314.234 964.126C316.376 965.758 319.334 966.574 323.108 966.574C326.066 966.574 328.82 966.319 331.37 965.809C333.92 965.197 336.062 964.585 337.796 963.973L339.02 969.94C336.98 970.756 334.481 971.47 331.523 972.082C328.565 972.694 325.301 973 321.731 973C315.611 973 310.97 971.572 307.808 968.716C304.646 965.758 303.065 961.321 303.065 955.405V907.21H290.06V901.09H303.065V878.14H311.021V901.09H335.195V907.21ZM345.166 901.09H353.428L372.094 948.826L377.602 965.044H377.908L382.651 948.826L399.481 901.09H407.131L379.438 979.12C376.684 986.872 373.165 993.094 368.881 997.786C364.597 1002.48 359.446 1006 353.428 1008.34L350.215 1002.53C355.417 1000.39 359.854 997.429 363.526 993.655C367.198 989.881 370.258 984.373 372.706 977.131L374.083 973L345.166 901.09ZM420.864 973V864.37H428.82V973H420.864ZM506.989 937.045H455.734V939.187C455.734 948.163 458.131 955.201 462.925 960.301C467.821 965.299 474.451 967.798 482.815 967.798C489.445 967.798 495.667 966.676 501.481 964.432L503.317 970.552C500.665 971.674 497.452 972.541 493.678 973.153C490.006 973.867 486.232 974.224 482.356 974.224C477.562 974.224 473.023 973.51 468.739 972.082C464.557 970.654 460.885 968.461 457.723 965.503C454.561 962.443 452.062 958.618 450.226 954.028C448.39 949.336 447.472 943.726 447.472 937.198C447.472 931.588 448.237 926.488 449.767 921.898C451.297 917.308 453.49 913.432 456.346 910.27C459.202 907.006 462.568 904.507 466.444 902.773C470.32 901.039 474.655 900.172 479.449 900.172C483.529 900.172 487.252 900.937 490.618 902.467C494.086 903.895 496.993 905.986 499.339 908.74C501.787 911.494 503.674 914.809 505 918.685C506.326 922.561 506.989 926.845 506.989 931.537V937.045ZM498.727 930.619C498.727 927.661 498.37 924.754 497.656 921.898C496.942 918.94 495.769 916.339 494.137 914.095C492.607 911.851 490.567 910.066 488.017 908.74C485.569 907.312 482.56 906.598 478.99 906.598C472.768 906.598 467.566 908.689 463.384 912.871C459.304 917.053 456.856 922.969 456.04 930.619H498.727Z" fill="#777"/>
<path d="M0 370C0 70 173 0 370 0C567 0 740 70 740 370C740 670 567 740 370 740C173 740 0 670 0 370Z" fill="#FAFA00"/>
<path d="M446.379 493.768V303.387C446.379 288.803 443.417 276.157 437.492 265.447C431.796 254.51 423.137 246.079 411.516 240.154C399.895 234.23 385.539 231.268 368.449 231.268C352.499 231.268 338.485 234.002 326.408 239.471C314.559 244.939 305.217 252.117 298.381 261.004C291.773 269.891 288.469 279.461 288.469 289.715H225.236C225.236 276.499 228.654 263.396 235.49 250.408C242.326 237.42 252.124 225.685 264.885 215.203C277.873 204.493 293.368 196.062 311.369 189.91C329.598 183.53 349.878 180.34 372.209 180.34C399.097 180.34 422.795 184.897 443.303 194.012C464.038 203.126 480.217 216.912 491.838 235.369C503.687 253.598 509.611 276.499 509.611 304.07V476.336C509.611 488.641 510.637 501.743 512.688 515.643C514.966 529.542 518.27 541.505 522.6 551.531L525 557H456.633C453.443 549.708 450.936 540.024 449.113 527.947C447.29 515.643 446.379 504.249 446.379 493.768ZM457.316 332.781L458 377.215H394.084C376.083 377.215 360.018 378.696 345.891 381.658C331.763 384.393 319.914 388.608 310.344 394.305C300.773 400.001 293.482 407.179 288.469 415.838C283.456 424.269 280.949 434.181 280.949 445.574C280.949 457.195 283.57 467.791 288.811 477.361C294.051 486.932 301.913 494.565 312.395 500.262C323.104 505.73 336.206 508.465 351.701 508.465C371.07 508.465 388.16 504.363 402.971 496.16C417.782 487.957 429.517 477.931 438.176 466.082C447.062 454.233 451.848 442.726 452.531 431.561L479.533 461.98C477.938 471.551 473.609 482.146 466.545 493.768C459.481 505.389 450.025 516.554 438.176 527.264C426.555 537.745 412.655 546.518 396.477 553.582C380.526 560.418 362.525 563.836 342.473 563.836C317.408 563.836 295.419 558.937 276.506 549.139C257.821 539.34 243.238 526.238 232.756 509.832C222.502 493.198 217.375 474.627 217.375 454.119C217.375 434.295 221.249 416.863 228.996 401.824C236.743 386.557 247.909 373.911 262.492 363.885C277.076 353.631 294.621 345.883 315.129 340.643C335.637 335.402 358.537 332.781 383.83 332.781H457.316Z" fill="white"/>
</svg>
