<svg height="140" viewBox="0 0 740 1009" fill="none" xmlns="http://www.w3.org/2000/svg">
<path d="M275.138 910.117C270.038 907.771 264.479 906.598 258.461 906.598C252.953 906.598 248.822 907.771 246.068 910.117C243.314 912.361 241.937 915.268 241.937 918.838C241.937 922.408 243.11 925.162 245.456 927.1C247.802 928.936 251.933 930.721 257.849 932.455L262.439 933.832C268.253 935.566 272.69 938.116 275.75 941.482C278.81 944.848 280.34 948.979 280.34 953.875C280.34 956.731 279.779 959.434 278.657 961.984C277.535 964.432 275.903 966.574 273.761 968.41C271.619 970.246 268.916 971.674 265.652 972.694C262.49 973.714 258.818 974.224 254.636 974.224C250.046 974.224 246.017 973.816 242.549 973C239.081 972.286 236.021 971.317 233.369 970.093L235.511 963.82C238.163 965.146 240.917 966.166 243.773 966.88C246.629 967.492 249.995 967.798 253.871 967.798C259.685 967.798 264.173 966.676 267.335 964.432C270.497 962.188 272.078 958.975 272.078 954.793C272.078 951.529 270.905 948.724 268.559 946.378C266.315 943.93 262.286 941.788 256.472 939.952L251.576 938.422C239.642 934.648 233.675 928.375 233.675 919.603C233.675 916.747 234.236 914.146 235.358 911.8C236.582 909.352 238.214 907.312 240.254 905.68C242.396 903.946 244.895 902.62 247.751 901.702C250.709 900.682 253.973 900.172 257.543 900.172C260.807 900.172 264.173 900.427 267.641 900.937C271.109 901.447 274.271 902.416 277.127 903.844L275.138 910.117ZM335.195 907.21H311.021V954.334C311.021 959.128 312.092 962.392 314.234 964.126C316.376 965.758 319.334 966.574 323.108 966.574C326.066 966.574 328.82 966.319 331.37 965.809C333.92 965.197 336.062 964.585 337.796 963.973L339.02 969.94C336.98 970.756 334.481 971.47 331.523 972.082C328.565 972.694 325.301 973 321.731 973C315.611 973 310.97 971.572 307.808 968.716C304.646 965.758 303.065 961.321 303.065 955.405V907.21H290.06V901.09H303.065V878.14H311.021V901.09H335.195V907.21ZM345.166 901.09H353.428L372.094 948.826L377.602 965.044H377.908L382.651 948.826L399.481 901.09H407.131L379.438 979.12C376.684 986.872 373.165 993.094 368.881 997.786C364.597 1002.48 359.446 1006 353.428 1008.34L350.215 1002.53C355.417 1000.39 359.854 997.429 363.526 993.655C367.198 989.881 370.258 984.373 372.706 977.131L374.083 973L345.166 901.09ZM420.864 973V864.37H428.82V973H420.864ZM506.989 937.045H455.734V939.187C455.734 948.163 458.131 955.201 462.925 960.301C467.821 965.299 474.451 967.798 482.815 967.798C489.445 967.798 495.667 966.676 501.481 964.432L503.317 970.552C500.665 971.674 497.452 972.541 493.678 973.153C490.006 973.867 486.232 974.224 482.356 974.224C477.562 974.224 473.023 973.51 468.739 972.082C464.557 970.654 460.885 968.461 457.723 965.503C454.561 962.443 452.062 958.618 450.226 954.028C448.39 949.336 447.472 943.726 447.472 937.198C447.472 931.588 448.237 926.488 449.767 921.898C451.297 917.308 453.49 913.432 456.346 910.27C459.202 907.006 462.568 904.507 466.444 902.773C470.32 901.039 474.655 900.172 479.449 900.172C483.529 900.172 487.252 900.937 490.618 902.467C494.086 903.895 496.993 905.986 499.339 908.74C501.787 911.494 503.674 914.809 505 918.685C506.326 922.561 506.989 926.845 506.989 931.537V937.045ZM498.727 930.619C498.727 927.661 498.37 924.754 497.656 921.898C496.942 918.94 495.769 916.339 494.137 914.095C492.607 911.851 490.567 910.066 488.017 908.74C485.569 907.312 482.56 906.598 478.99 906.598C472.768 906.598 467.566 908.689 463.384 912.871C459.304 917.053 456.856 922.969 456.04 930.619H498.727Z" fill="#777"/>
<path d="M0 370C0 70 173 0 370 0C567 0 740 70 740 370C740 670 567 740 370 740C173 740 0 670 0 370Z" fill="#FAFA00"/>
<path d="M413.6 545.2C412.2 538.2 411.267 532.367 410.8 527.7C410.8 522.567 410.567 516.733 410.1 510.2C394.233 526.067 377.2 537.733 359 545.2C341.267 552.667 322.833 556.4 303.7 556.4C271.967 556.4 247.467 547.767 230.2 530.5C213.4 513.233 205 492 205 466.8C205 444.4 211.067 425.5 223.2 410.1C235.333 394.233 251.2 381.4 270.8 371.6C290.4 361.333 312.1 353.633 335.9 348.5C359.7 342.9 383.267 339.867 406.6 339.4V300.9C406.6 287.367 404.967 275 401.7 263.8C398.9 252.133 393.533 243.033 385.6 236.5C377.667 229.5 366 226 350.6 226C340.333 226.467 329.833 228.8 319.1 233C308.833 236.733 300.667 242.8 294.6 251.2C298.333 255.4 300.667 260.067 301.6 265.2C302.533 269.867 303 274.067 303 277.8C303 286.2 299.733 295.067 293.2 304.4C286.667 313.267 276.167 317.467 261.7 317C249.1 316.533 239.3 312.1 232.3 303.7C225.767 295.3 222.5 285.267 222.5 273.6C222.5 255.867 228.8 240.467 241.4 227.4C254.467 213.867 271.967 203.367 293.9 195.9C315.833 187.967 340.333 184 367.4 184C407.533 184 438.333 194.5 459.8 215.5C481.267 236.5 491.767 270.1 491.3 316.3C491.3 332.633 491.3 347.567 491.3 361.1C491.3 374.167 491.067 387.467 490.6 401C490.6 414.067 490.6 428.767 490.6 445.1C490.6 452.1 490.367 460.967 489.9 471.7C489.433 481.967 488.733 492.233 487.8 502.5C496.2 501.567 504.6 501.1 513 501.1C521.867 500.633 529.1 500.167 534.7 499.7V545.2H413.6ZM405.9 380.7C391.9 381.633 378.133 383.967 364.6 387.7C351.067 390.967 338.933 395.633 328.2 401.7C317.467 407.767 308.833 415.467 302.3 424.8C296.233 433.667 293.433 443.933 293.9 455.6C294.367 470.067 299.033 480.8 307.9 487.8C316.767 494.333 327.033 497.6 338.7 497.6C352.233 497.6 364.367 494.8 375.1 489.2C386.3 483.6 396.567 476.133 405.9 466.8C405.9 462.133 405.9 457.233 405.9 452.1C405.9 446.967 405.9 441.833 405.9 436.7C405.9 430.167 405.9 422 405.9 412.2C405.9 402.4 405.9 391.9 405.9 380.7Z" fill="white"/>
</svg>
